<?xml version="1.0" standalone="no"?><!DOCTYPE svg PUBLIC "-//W3C//DTD SVG 1.1//EN" "http://www.w3.org/Graphics/SVG/1.1/DTD/svg11.dtd"><svg t="1683869198399" class="icon" viewBox="0 0 1024 1024" version="1.1" xmlns="http://www.w3.org/2000/svg" p-id="4760" xmlns:xlink="http://www.w3.org/1999/xlink" width="200" height="200"><path d="M704 832H320a234.666667 234.666667 0 0 1-29.44-467.2 223.573333 223.573333 0 0 1 443.306667 0A234.666667 234.666667 0 0 1 704 832z m-192-618.666667a181.12 181.12 0 0 0-180.906667 172.16v19.413334h-19.413333A192 192 0 0 0 320 789.333333h384a192 192 0 0 0 8.96-384h-19.413333v-19.413333A181.12 181.12 0 0 0 512 213.333333z" fill="#333333" p-id="4761"></path></svg>