<?xml version="1.0" standalone="no"?><!DOCTYPE svg PUBLIC "-//W3C//DTD SVG 1.1//EN" "http://www.w3.org/Graphics/SVG/1.1/DTD/svg11.dtd"><svg t="1683869177301" class="icon" viewBox="0 0 1024 1024" version="1.1" xmlns="http://www.w3.org/2000/svg" p-id="4620" xmlns:xlink="http://www.w3.org/1999/xlink" width="200" height="200"><path d="M416 213.3c120.6 0 222.3 86.4 241.8 205.5 2 12 9 22.6 19.2 29.1 6.9 4.4 14.8 6.6 22.9 6.6 3.9 0 7.8-0.5 11.7-1.6 11.7-3.3 23.5-5 35.1-5 70.6 0 128 57.4 128 128s-57.4 128-128 128H433.5c-2.2-0.4-4.5-0.5-6.8-0.5h-1.6c-1.9 0.1-3.8 0.2-5.6 0.3-1.1 0.1-2.3 0.2-3.4 0.2-135.3 0.1-245.4-110-245.4-245.2s110.1-245.4 245.3-245.4m0-42.6c-159.1 0-288 128.9-288 288s128.9 288 288 288c3.6 0 7.1-0.4 10.7-0.5v0.5h320c94.3 0 170.7-76.4 170.7-170.7S841 405.3 746.7 405.3c-16.2 0-31.9 2.4-46.8 6.7-22.3-136.8-140.7-241.3-283.9-241.3z" p-id="4621"></path></svg>