<?xml version="1.0" standalone="no"?><!DOCTYPE svg PUBLIC "-//W3C//DTD SVG 1.1//EN" "http://www.w3.org/Graphics/SVG/1.1/DTD/svg11.dtd"><svg t="1683869147891" class="icon" viewBox="0 0 1024 1024" version="1.1" xmlns="http://www.w3.org/2000/svg" p-id="3469" xmlns:xlink="http://www.w3.org/1999/xlink" width="200" height="200"><path d="M224 560l-128 65.312 416 288 416-288-115.2-81.216-195.648-476.384-180.768 476.384-134.4-225.472z" fill="#FFFFFF" p-id="3470"></path><path d="M213.312 544.096l25.952 20.96-87.04 60.256L512 874.4l359.776-249.088-87.072-60.256 25.952-20.96L928 625.312l-416 288-416-288 117.312-81.216z" fill="#5D6D7E" p-id="3471"></path><path d="M435.04 544.864l180.576-484.928 199.232 494.944-29.696 11.936L616.768 148.48l-175.68 471.872-133.408-234.976-68.736 181.152-29.888-11.36 92.864-244.736z" fill="#C49F74" p-id="3472"></path></svg>