<?xml version="1.0" standalone="no"?><!DOCTYPE svg PUBLIC "-//W3C//DTD SVG 1.1//EN" "http://www.w3.org/Graphics/SVG/1.1/DTD/svg11.dtd"><svg t="1683868968630" class="icon" viewBox="0 0 1029 1024" version="1.1" xmlns="http://www.w3.org/2000/svg" p-id="1983" xmlns:xlink="http://www.w3.org/1999/xlink" width="200.9765625" height="200"><path d="M998.457 516.083q21.034 21.502 22.035 47.304 1.002 25.803-16.025 43.004-19.03 18.277-44.07 17.202-25.04-1.075-40.065-15.051-5.008-4.3-30.549-30.103-25.54-25.803-61.097-61.819-35.557-36.016-76.122-77.408-40.565-41.391-76.622-77.945-36.058-36.553-62.1-63.431-26.04-26.878-33.052-33.328-32.051-31.178-63.1-30.103-31.05 1.075-61.098 30.103-10.016 9.676-37.56 37.09-27.544 27.416-63.602 63.97-36.058 36.553-76.122 76.332-40.064 39.78-74.118 74.183-34.054 34.403-58.594 58.593-24.539 24.19-29.547 28.49-15.024 12.901-40.064 13.977-25.04 1.075-43.069-16.127-20.032-19.352-19.03-46.767 1.002-27.415 17.027-43.542 6.01-6.45 37.06-37.629 31.049-31.178 74.118-74.182 43.069-43.004 92.648-92.46 49.579-49.454 92.147-92.458 42.568-43.005 73.117-73.645 30.549-30.64 35.557-36.016Q474.62 64.538 518.69 64q44.071-0.537 75.12 31.716 6.01 5.376 25.04 25.265 19.031 19.89 46.575 48.38 27.544 28.49 61.598 63.969 34.055 35.478 69.11 71.494 35.057 36.016 68.61 71.495 33.554 35.478 61.599 63.969 28.045 28.49 47.075 48.917z m-541.865-155.89q25.04-24.728 60.096-26.34 35.055-1.614 63.1 26.34 3.005 3.224 18.03 18.276l38.06 37.629q22.035 22.577 49.579 50.53 27.544 27.952 56.59 55.905 67.108 66.657 150.24 149.44v204.27q0 23.652-16.526 41.93-16.526 18.276-44.571 19.351H641.887V770.883q0-35.479-31.05-35.479H419.533q-17.027 0-23.537 10.751-6.51 10.751-6.51 24.728 0 6.45-0.501 32.79t-0.501 56.444v77.407H205.19q-29.046 0-46.074-13.976-17.027-13.977-17.027-39.78V669.824q82.131-80.633 149.239-146.215 28.044-27.952 56.09-55.368 28.044-27.415 51.08-49.992 23.038-22.577 38.562-38.166 15.525-15.59 19.532-19.89z" p-id="1984"></path></svg>