<?xml version="1.0" standalone="no"?><!DOCTYPE svg PUBLIC "-//W3C//DTD SVG 1.1//EN" "http://www.w3.org/Graphics/SVG/1.1/DTD/svg11.dtd"><svg t="1683869091003" class="icon" viewBox="0 0 1024 1024" version="1.1" xmlns="http://www.w3.org/2000/svg" p-id="2564" xmlns:xlink="http://www.w3.org/1999/xlink" width="200" height="200"><path d="M952.363 192.786q7.437 8.958 8.499 20.717 1.062 11.758 1.062 18.476v601.34q0 52.631-33.995 88.465t-90.3 35.834h-614.04q-57.367 0-90.832-30.235-33.464-30.235-33.464-91.824V180.468q0-60.47 33.464-96.864Q166.222 47.21 223.59 47.21h563.047q10.624 0 21.247 2.8 10.624 2.8 14.873 7.279z m-188.036-40.313q-2.125-34.714-35.058-34.714H266.083q-15.936-1.12-25.497 8.958-9.56 10.078-9.56 23.516v182.53q0 11.198 4.78 22.956t13.28 21.276q8.498 9.519 19.653 15.678 11.154 6.159 23.903 6.159h403.694q28.683 0 48.337-17.917 19.654-17.917 19.654-53.751z m0 503.916q0-48.152-46.744-49.272H278.831q-24.434 0-36.12 13.438-11.686 13.437-11.686 35.834V819.88h533.302z" p-id="2565"></path></svg>