<?xml version="1.0" standalone="no"?><!DOCTYPE svg PUBLIC "-//W3C//DTD SVG 1.1//EN" "http://www.w3.org/Graphics/SVG/1.1/DTD/svg11.dtd"><svg t="1683869072512" class="icon" viewBox="0 0 1024 1024" version="1.1" xmlns="http://www.w3.org/2000/svg" p-id="2412" xmlns:xlink="http://www.w3.org/1999/xlink" width="200" height="200"><path d="M426.666667 597.333333c-113.92 0-341.333333 57.173333-341.333334 170.666667v85.333333h682.666667v-85.333333c0-113.493333-227.413333-170.666667-341.333333-170.666667z m0 85.333334c114.773333 0 246.186667 54.613333 256 85.333333H170.666667c8.533333-30.293333 140.8-85.333333 256-85.333333zM426.666667 170.666667C332.373333 170.666667 256 247.04 256 341.333333s76.373333 170.666667 170.666667 170.666667 170.666667-76.373333 170.666666-170.666667-76.373333-170.666667-170.666666-170.666666z m0 85.333333c46.933333 0 85.333333 38.4 85.333333 85.333333s-38.4 85.333333-85.333333 85.333334-85.333333-38.4-85.333334-85.333334 38.4-85.333333 85.333334-85.333333z" p-id="2413"></path><path d="M946.346667 544.341333h-241.493334a7.338667 7.338667 0 0 0-7.296 7.296v51.242667c0 4.010667 3.285333 7.338667 7.296 7.338667h161.450667l-43.178667 54.954666a7.338667 7.338667 0 0 0 5.76 11.818667h66.432a14.933333 14.933333 0 0 0 11.52-5.589333l62.677334-79.701334a29.354667 29.354667 0 0 0-23.168-47.36zM726.826667 485.802667h241.493333a7.338667 7.338667 0 0 0 7.338667-7.338667v-51.2a7.338667 7.338667 0 0 0-7.338667-7.338667h-161.450667l43.178667-54.997333a7.338667 7.338667 0 0 0-5.76-11.818667H777.813333a14.933333 14.933333 0 0 0-11.52 5.589334l-62.677333 79.701333a29.354667 29.354667 0 0 0 23.168 47.36z" p-id="2414"></path></svg>