<?xml version="1.0" standalone="no"?><!DOCTYPE svg PUBLIC "-//W3C//DTD SVG 1.1//EN" "http://www.w3.org/Graphics/SVG/1.1/DTD/svg11.dtd"><svg t="1683874523153" class="icon" viewBox="0 0 1024 1024" version="1.1" xmlns="http://www.w3.org/2000/svg" p-id="2553" xmlns:xlink="http://www.w3.org/1999/xlink" width="200" height="200"><path d="M411.741091 558.545455a34.909091 34.909091 0 0 1 34.909091 34.90909v272.104728a34.909091 34.909091 0 1 1-69.818182 0v-187.810909L106.146909 948.433455a34.792727 34.792727 0 0 1-24.669091 10.216727 34.909091 34.909091 0 0 1-24.692363-59.578182L327.493818 628.363636H139.636364a34.909091 34.909091 0 1 1 0-69.818181h272.104727z m487.330909-501.76a34.909091 34.909091 0 1 1 49.338182 49.338181L677.748364 376.832h187.857454a34.909091 34.909091 0 1 1 0 69.818182H593.454545a34.909091 34.909091 0 0 1-34.90909-34.909091V139.636364a34.909091 34.909091 0 1 1 69.818181 0v187.810909L899.072 56.785455z" fill="#797979" p-id="2554"></path></svg>